<?xml version="1.0" encoding="UTF-8"?>
<svg version="1.1" xmlns="http://www.w3.org/2000/svg" width="496" height="504">
<path d="M0 0 C0.99 0.391875 1.98 0.78375 3 1.1875 C3.66 1.455625 4.32 1.72375 5 2 C5 2.66 5 3.32 5 4 C5.70125 4.226875 6.4025 4.45375 7.125 4.6875 C9.71620491 5.87044137 10.97685661 6.80063052 13 8.6875 C15.73195639 11.26554422 15.73195639 11.26554422 18.75 11.0625 C21.13850778 10.24478761 21.13850778 10.24478761 21.73828125 8.1875 C23.56545669 5.01964166 26.325415 3.65708679 29.4375 1.9375 C30.06277588 1.58679443 30.68805176 1.23608887 31.33227539 0.87475586 C36.6925256 -2.02885517 42.00130673 -3.85739176 48 -5 C49.155 -5.226875 50.31 -5.45375 51.5 -5.6875 C67.49465088 -7.11559383 82.90806579 -3.6586599 97 4 C98.485 4.804375 98.485 4.804375 100 5.625 C100.66 6.07875 101.32 6.5325 102 7 C102 7.66 102 8.32 102 9 C103.98 9.495 103.98 9.495 106 10 C106 10.66 106 11.32 106 12 C106.86818359 12.37125 106.86818359 12.37125 107.75390625 12.75 C113.74059706 16.08172358 117.71357914 21.83772583 119.875 28.1875 C121.56290219 31.93452686 123.23375761 33.32275396 126.95703125 34.7890625 C130.8917358 36.12836819 134.88712182 37.25007133 138.88867188 38.37060547 C147.65865593 40.98496935 154.84909062 46.47479659 162 52 C162.93199219 52.69996094 163.86398437 53.39992187 164.82421875 54.12109375 C165.90123047 55.05115234 165.90123047 55.05115234 167 56 C167 56.66 167 57.32 167 58 C167.66 58 168.32 58 169 58 C179.02307208 69.67636232 185.25042513 84.8422963 186.2890625 100.1796875 C187.14964811 104.80415302 188.42856707 106.00260857 192.0625 108.875 C193.733044 110.21986992 195.38582796 111.58796566 197 113 C197 113.66 197 114.32 197 115 C197.66 115 198.32 115 199 115 C199.33 116.32 199.66 117.64 200 119 C200.66 119 201.32 119 202 119 C212.15186707 137.80181408 216.14634798 157.65212882 209.92578125 178.62109375 C207.62830011 184.89024576 204.92464173 190.59035869 201 196 C200.34 196 199.68 196 199 196 C198.9071875 196.8353125 198.9071875 196.8353125 198.8125 197.6875 C196.66688386 203.79425363 189.16399019 208.48954777 184 212 C182.35 212.66 180.7 213.32 179 214 C179 218.62 179 223.24 179 228 C183.77000163 228.03008864 188.53688733 228.01463196 193.30664062 227.95727539 C194.92833243 227.94415019 196.55017399 227.94338838 198.171875 227.95532227 C200.50670538 227.97034415 202.83738483 227.94065345 205.171875 227.90234375 C206.25647003 227.92372658 206.25647003 227.92372658 207.36297607 227.94554138 C209.70478758 227.95162984 209.70478758 227.95162984 213 227 C214.86188736 224.78688957 215.77491135 222.67282082 217 220 C218.96484375 218.07421875 218.96484375 218.07421875 220.9375 216.6875 C221.58589844 216.21699219 222.23429687 215.74648437 222.90234375 215.26171875 C229.66253329 211.19553398 236.28285492 211.31753139 244 212 C250.70844696 213.69318629 255.15255461 218.44257887 259 224 C262.20635722 229.66229041 262.87916254 235.59467294 262 242 C259.57499714 250.54347162 255.84838834 256.53719095 248 261 C240.24925501 263.98105577 231.97460454 264.06877042 224.17578125 261.1875 C219.02558428 258.3766205 215.21501716 253.82252573 212 249 C209.45630199 248.66225152 207.13666548 248.51095894 204.5859375 248.48828125 C203.93923096 248.47164429 203.29252441 248.45500732 202.6262207 248.43786621 C200.20947824 248.38001489 197.79217702 248.34780143 195.375 248.3125 C189.97125 248.209375 184.5675 248.10625 179 248 C179 263.51 179 279.02 179 295 C187.76453443 294.92141343 187.76453443 294.92141343 196.52880859 294.81982422 C217.22936681 294.72683519 217.22936681 294.72683519 224.8125 301.65625 C232.52889786 309.75846775 233.32262062 317.78409765 233.125 328.625 C233.08375 329.62273437 233.0425 330.62046875 233 331.6484375 C232.97684054 337.42191221 232.97684054 337.42191221 235.97363281 342.14331055 C238.34930363 344.00558264 238.34930363 344.00558264 240.81787109 345.52075195 C244.96581915 348.33261336 246.52343187 352.13344148 247.75 356.9375 C248.5271881 366.45805425 248.14575625 374.27390642 242 382 C236.53799655 387.46200345 229.13887436 390.18380226 221.5 390.5625 C213.53612018 390.21379905 207.41657421 386.87731228 202 381.125 C196.45613316 374.1071168 196.44506035 366.62569246 197 358 C198.27643702 351.36252747 202.69911385 345.3366419 208.25 341.5 C211 340 211 340 213 340 C212.91915297 336.72815192 212.80631126 333.45817221 212.6875 330.1875 C212.66494141 329.25873047 212.64238281 328.32996094 212.61914062 327.37304688 C212.5659668 326.0340332 212.5659668 326.0340332 212.51171875 324.66796875 C212.48553467 323.84578857 212.45935059 323.0236084 212.43237305 322.17651367 C211.9036966 319.51522034 211.13233096 318.63674718 209 317 C205.76134365 315.92044788 203.20844162 315.79558259 199.80078125 315.68359375 C198.59228516 315.64169922 197.38378906 315.59980469 196.13867188 315.55664062 C194.2447168 315.49766602 194.2447168 315.49766602 192.3125 315.4375 C191.03826172 315.39431641 189.76402344 315.35113281 188.45117188 315.30664062 C185.30089148 315.2004514 182.15053161 315.09840467 179 315 C179.06767578 316.90845703 179.06767578 316.90845703 179.13671875 318.85546875 C179.13146988 324.22506343 178.10789015 329.12094926 176.8125 334.3125 C176.58473877 335.23748291 176.35697754 336.16246582 176.12231445 337.11547852 C171.75986284 354.25701109 163.61063676 368.75759807 152 382 C151.35675781 382.76441406 150.71351563 383.52882813 150.05078125 384.31640625 C146.96801224 387.94752029 143.95789472 391.28601505 140 394 C139.34 394 138.68 394 138 394 C137.79890625 394.55429687 137.5978125 395.10859375 137.390625 395.6796875 C135.45277103 398.91307306 132.70926773 400.8823424 129.75 403.125 C129.13608398 403.59784424 128.52216797 404.07068848 127.88964844 404.55786133 C123.39128186 407.99910032 118.83831046 411.36729739 114.25 414.6875 C113.65413086 415.12143066 113.05826172 415.55536133 112.44433594 416.00244141 C108.23968215 419 108.23968215 419 106 419 C106 419.66 106 420.32 106 421 C104.25588699 422.23662862 102.45293515 423.39102135 100.625 424.5 C96.57056853 426.94216507 96.57056853 426.94216507 93 430 C92.01 430 91.02 430 90 430 C90 430.66 90 431.32 90 432 C88.13671875 433.5078125 88.13671875 433.5078125 85.6875 435.125 C84.88699219 435.66382813 84.08648437 436.20265625 83.26171875 436.7578125 C81 438 81 438 78 438 C78 438.66 78 439.32 78 440 C75.9453125 441.48046875 75.9453125 441.48046875 73.125 443.1875 C69.42623145 445.47452483 65.79521047 447.79384879 62.25 450.3125 C56.19862481 454.59648942 50.01776337 458.68072541 43.83984375 462.77880859 C41.09869402 464.59823945 38.36192381 466.42422047 35.625 468.25 C34.66464844 468.88550781 33.70429688 469.52101563 32.71484375 470.17578125 C30.95980397 471.35506697 29.22122658 472.55940062 27.50390625 473.79296875 C23.04573056 476.95804795 19.67551502 479.10708519 14 479 C9.84475068 477.1469066 6.13299305 474.86441539 2.375 472.3125 C1.33085937 471.60738281 0.28671875 470.90226562 -0.7890625 470.17578125 C-1.84867188 469.45777344 -2.90828125 468.73976563 -4 468 C-5.99880731 466.66487936 -7.99878871 465.3315146 -10 464 C-10.97453125 463.34773438 -11.9490625 462.69546875 -12.953125 462.0234375 C-15.10114609 460.59693119 -17.25487958 459.18597876 -19.421875 457.7890625 C-20.52015625 457.07492187 -21.6184375 456.36078125 -22.75 455.625 C-24.25820313 454.65433594 -24.25820313 454.65433594 -25.796875 453.6640625 C-26.52390625 453.11492187 -27.2509375 452.56578125 -28 452 C-28 451.34 -28 450.68 -28 450 C-28.57878906 449.89429688 -29.15757812 449.78859375 -29.75390625 449.6796875 C-32.32678936 448.9011107 -33.84060161 447.79421417 -35.9375 446.125 C-38.8647451 443.85367464 -41.77207216 441.83206715 -45 440 C-48.75425088 437.78595461 -52.46266377 435.55017263 -56 433 C-56 432.34 -56 431.68 -56 431 C-56.99 430.690625 -56.99 430.690625 -58 430.375 C-61.33498345 428.84646592 -63.8886816 426.91322935 -66.7421875 424.6328125 C-69.12213205 422.91167613 -71.62074594 421.52269464 -74.18017578 420.08886719 C-77.13973641 418.31805415 -79.80277281 416.20430785 -82.5 414.0625 C-86.04412188 411.28135941 -89.58949555 408.54013542 -93.3125 406 C-94.199375 405.34 -95.08625 404.68 -96 404 C-96 403.34 -96 402.68 -96 402 C-96.8353125 401.9071875 -96.8353125 401.9071875 -97.6875 401.8125 C-100.98120783 400.6552513 -102.59504754 398.51681071 -105 396 C-106.13697284 395.03117103 -107.28331688 394.07326058 -108.4375 393.125 C-111.51423263 390.5308921 -114.09472309 387.72414454 -116.640625 384.61328125 C-117.9918018 382.9483029 -117.9918018 382.9483029 -119.671875 381.41796875 C-121 380 -121 380 -121 378 C-121.99 377.67 -122.98 377.34 -124 377 C-125.53865201 374.96337341 -126.90643784 372.97248372 -128.25 370.8125 C-128.64550049 370.18029541 -129.04100098 369.54809082 -129.44848633 368.89672852 C-135.48279454 359.10055256 -140.13538956 349.45404908 -143.4375 338.4375 C-143.69684326 337.59952881 -143.95618652 336.76155762 -144.22338867 335.89819336 C-146.19037047 328.89914606 -146.2632273 322.23696733 -146 315 C-150.21792077 315.09360474 -154.43528583 315.19971309 -158.65258789 315.31738281 C-160.08707068 315.35564866 -161.52164865 315.39050581 -162.95629883 315.421875 C-165.01938878 315.46757862 -167.08182495 315.52556193 -169.14453125 315.5859375 C-171.00621948 315.63306885 -171.00621948 315.63306885 -172.90551758 315.68115234 C-176.16636101 315.77399209 -176.16636101 315.77399209 -179 318 C-179.74138109 321.55742697 -179.6018629 325.1869164 -179.625 328.8125 C-179.67011719 329.81087891 -179.71523437 330.80925781 -179.76171875 331.83789062 C-179.95592583 337.17164353 -179.95592583 337.17164353 -177.51391602 341.65576172 C-175.68947177 342.94270291 -175.68947177 342.94270291 -173.74609375 343.9987793 C-171.32992296 345.38422622 -170.14819088 347.1628946 -168.6875 349.5 C-167.98173828 350.59828125 -167.98173828 350.59828125 -167.26171875 351.71875 C-163.59865842 358.34174453 -162.88056721 364.23886811 -164.6171875 371.625 C-167.43932307 379.81668554 -172.71627307 384.53048006 -180.3125 388.4375 C-186.74522236 390.95992024 -192.66482641 391.19200819 -199.19140625 388.859375 C-206.70373134 385.35669582 -211.38320953 381.96605282 -214.8125 374.3125 C-217.51854523 366.14770837 -216.38185849 358.70535741 -213.16796875 350.8984375 C-212 349 -212 349 -209 348 C-209 347.01 -209 346.02 -209 345 C-207.68 344.67 -206.36 344.34 -205 344 C-205 343.34 -205 342.68 -205 342 C-203.68 341.34 -202.36 340.68 -201 340 C-200.99589111 339.26475098 -200.99178223 338.52950195 -200.98754883 337.77197266 C-200.95432907 334.38887271 -200.88365305 331.00750646 -200.8125 327.625 C-200.80669922 326.46871094 -200.80089844 325.31242187 -200.79492188 324.12109375 C-200.59538191 316.27252178 -199.16512773 310.68062431 -195 304 C-194.34 304 -193.68 304 -193 304 C-192.7215625 303.13375 -192.7215625 303.13375 -192.4375 302.25 C-190.37339208 299.01922238 -187.50452564 297.35967935 -184 296 C-179.13323902 295.16123959 -174.46927288 294.88187024 -169.53515625 294.90234375 C-168.29386963 294.90484131 -167.05258301 294.90733887 -165.77368164 294.90991211 C-164.2189917 294.91901611 -162.66430176 294.92812012 -161.0625 294.9375 C-153.6065625 294.9684375 -153.6065625 294.9684375 -146 295 C-146.33 279.82 -146.66 264.64 -147 249 C-163.83 248.505 -163.83 248.505 -181 248 C-181.66 249.65 -182.32 251.3 -183 253 C-188.00795509 258.76032393 -193.81295315 262.4031113 -201.41015625 263.27734375 C-209.05064013 263.5725711 -215.76292002 262.06392109 -221.8125 257.25 C-228.21503075 251.14457045 -229.62008929 245.85493191 -230.0390625 237.15625 C-229.96183401 230.91618781 -228.43408503 225.26559705 -225 220 C-217.67783425 213.34637982 -211.45161726 211.50427866 -201.60546875 211.59765625 C-196.36432629 212.18252914 -192.38919093 214.16826392 -188 217 C-188 217.66 -188 218.32 -188 219 C-187.4225 219.20625 -186.845 219.4125 -186.25 219.625 C-184 221 -184 221 -182.34863281 224.03564453 C-180.23751389 227.34463565 -180.23751389 227.34463565 -176.42480469 227.77294922 C-175.00770788 227.81370318 -173.58944559 227.82251622 -172.171875 227.8046875 C-171.42286926 227.81839386 -170.67386353 227.83210022 -169.90216064 227.84622192 C-167.51749576 227.88351633 -165.13491504 227.8798083 -162.75 227.875 C-161.13017579 227.89312753 -159.51037916 227.91393042 -157.890625 227.9375 C-153.92673422 227.98934434 -149.96421122 228.00443141 -146 228 C-145.80974473 219.56105398 -145.80974473 219.56105398 -149.22265625 212.26171875 C-150.15980469 211.74222656 -151.09695312 211.22273437 -152.0625 210.6875 C-165.95336519 202.06186573 -174.47372596 188.8046715 -178.75 173.125 C-182.4600701 155.57903311 -179.86750279 139.01598783 -172 123 C-171.34 123 -170.68 123 -170 123 C-169.7215625 122.01 -169.7215625 122.01 -169.4375 121 C-166.6968779 115.28044083 -162.42971464 110.92499844 -157.1875 107.4375 C-153.52143339 104.44761901 -153.34420447 101.45978505 -152.8125 96.875 C-152.68847529 95.54430125 -152.56477823 94.21357192 -152.44140625 92.8828125 C-151.19786244 81.94402889 -146.18174607 70.40789784 -139 62 C-138.34 62 -137.68 62 -137 62 C-136.86271484 61.11441406 -136.86271484 61.11441406 -136.72265625 60.2109375 C-135.34891622 56.00803556 -131.35013484 53.69186273 -128 51 C-127.38898438 50.49210937 -126.77796875 49.98421875 -126.1484375 49.4609375 C-116.21016099 41.55260683 -102.97919864 34 -90 34 C-89.814375 33.21625 -89.62875 32.4325 -89.4375 31.625 C-83.56462841 16.81514989 -69.81027363 5.13082955 -55.44433594 -1.07885742 C-51.42383943 -2.59397262 -47.33984116 -3.45946325 -43.125 -4.25 C-42.24440918 -4.41765869 -41.36381836 -4.58531738 -40.45654297 -4.75805664 C-26.26807278 -7.33503918 -13.35757748 -5.58589604 0 0 Z M-210 232 C-211.73823201 234.40041563 -212.02979994 235.59273413 -211.8125 238.5625 C-210.89388592 241.31834223 -210.459636 242.44223053 -208 244 C-204.07994554 244.49891602 -201.88405462 244.55253414 -198.5 242.4375 C-196.69713659 239.97118722 -196.69713659 239.97118722 -196.9375 236.4375 C-197.68619925 232.89100159 -197.68619925 232.89100159 -200.375 231.0625 C-204.24858244 229.49462139 -206.54795372 229.77287337 -210 232 Z M231 232 C229.24738853 234.42027298 228.95819137 235.57146151 229.25 238.5625 C229.94095053 241.22069209 229.94095053 241.22069209 232 244 C237.39565506 244.70357257 237.39565506 244.70357257 242.0625 242.5 C243.5314021 238.58292774 242.98583102 236.07476824 242 232 C238.35458561 229.08366849 234.79088152 229.55426998 231 232 Z M70 264 C69.14148438 264.93779297 69.14148438 264.93779297 68.265625 265.89453125 C67.11160476 267.19412744 65.97261245 268.50719673 64.84765625 269.83203125 C62.77579243 272.26307654 60.64335344 274.63179392 58.5 277 C55.84886006 279.93678465 53.21709829 282.88602542 50.625 285.875 C47.64082278 289.30333383 44.57768265 292.65579959 41.5 296 C36.66493117 301.26075192 36.66493117 301.26075192 31.875 306.5625 C31.33617187 307.16191406 30.79734375 307.76132812 30.2421875 308.37890625 C28.78707272 310.09543297 28.78707272 310.09543297 28 313 C27.34 313 26.68 313 26 313 C22.36366461 316.47998507 22.36366461 316.47998507 21 321 C20.40832031 321.25523437 19.81664062 321.51046875 19.20703125 321.7734375 C16.77407542 323.12555809 15.46504943 324.49533457 13.6875 326.625 C12.7903125 327.68267578 12.7903125 327.68267578 11.875 328.76171875 C11.25625 329.50035156 10.6375 330.23898437 10 331 C8.7338272 332.48315806 7.46317198 333.96250427 6.1875 335.4375 C5.62417969 336.09621094 5.06085938 336.75492187 4.48046875 337.43359375 C3 339 3 339 1 340 C0.7525 339.42765625 0.505 338.8553125 0.25 338.265625 C-1.19316199 335.64989389 -2.88216222 333.85226544 -5 331.75 C-5.70125 331.04359375 -6.4025 330.3371875 -7.125 329.609375 C-8.84110768 327.78289601 -8.84110768 327.78289601 -11 328 C-11.33 327.01 -11.66 326.02 -12 325 C-13.4648693 323.54925785 -13.4648693 323.54925785 -15.25 322.1875 C-18.61317719 319.41903097 -21.20839719 316.34992337 -24 313 C-25.80896751 311.37656762 -27.65708057 309.82514354 -29.546875 308.296875 C-31 307 -31 307 -32 305 C-35.75193191 303.07043502 -38.81042812 302.4869912 -43 303 C-47.28329598 305.26762728 -50.23047848 307.42006195 -52 312 C-52.21282932 318.49129431 -50.4179437 321.03716292 -46.17529297 325.7097168 C-42.03995495 330.06365686 -37.77584302 334.28463566 -33.5 338.5 C-28.00469513 343.91757779 -22.59703165 349.32593029 -17.57324219 355.18652344 C-15.11321898 358.02219265 -12.51481751 360.70746787 -9.875 363.375 C-9.37613281 363.89449219 -8.87726563 364.41398437 -8.36328125 364.94921875 C-4.36928255 368.98493023 -1.39147806 370.95487777 4.3125 371.0625 C13.16362944 368.51217457 19.16927638 359.72861072 25 353 C25.55429687 352.37222656 26.10859375 351.74445313 26.6796875 351.09765625 C29.23292206 348.43325712 29.23292206 348.43325712 30 345 C30.99 344.67 31.98 344.34 33 344 C35.22931824 342.18739868 35.22931824 342.18739868 37 340 C37 339.01 37 338.02 37 337 C37.59425781 336.7421875 38.18851562 336.484375 38.80078125 336.21875 C41.19302503 334.89303053 42.44781639 333.59621136 44.1875 331.5 C46.92703603 328.26076319 49.71240206 325.08028477 52.5625 321.9375 C54.04267801 320.29257615 55.5219024 318.64679352 57 317 C57.94359375 315.95005859 57.94359375 315.95005859 58.90625 314.87890625 C61.94368151 311.88444302 61.94368151 311.88444302 63 308 C63.66 308 64.32 308 65 308 C68.63633539 304.52001493 68.63633539 304.52001493 70 300 C70.99 299.67 71.98 299.34 73 299 C76.03277199 295.94491974 76.03277199 295.94491974 77 292 C77.5671875 291.77957031 78.134375 291.55914062 78.71875 291.33203125 C81.71171604 289.58442608 83.3550867 287.4016968 85.5 284.6875 C86.62921875 283.27017578 86.62921875 283.27017578 87.78125 281.82421875 C88.5134375 280.89222656 89.245625 279.96023438 90 279 C90.7321875 278.09894531 91.464375 277.19789063 92.21875 276.26953125 C95.26014201 272.39442432 95.25429595 269.91638837 95 265 C93.77361702 261.09787233 91.50252011 259.04313673 88 257 C79.75679736 255.19812954 75.41605097 258.02641437 70 264 Z M-195.375 358.625 C-197.48706506 361.71186432 -197.61195145 363.3282913 -197 367 C-195.5 369.5 -195.5 369.5 -193 371 C-190 371.75 -190 371.75 -187 371 C-184.40878096 368.9901643 -184.40878096 368.9901643 -183 366 C-183.06427657 362.78617168 -183.46887042 360.83862565 -185.1875 358.125 C-188.82539974 355.86699326 -191.9306098 356.26831197 -195.375 358.625 Z M215 361 C214.38804855 364.6717087 214.51293494 366.28813568 216.625 369.375 C219.69477548 371.4753727 221.34556561 371.53293835 225 371 C228.15610481 369.46459766 228.840192 368.43242165 230.0625 365.125 C230.29186661 361.83368372 230.29186661 361.83368372 227.9375 359.125 C225.17384476 356.80499009 225.17384476 356.80499009 221.9375 356.4375 C218.29306849 357.13536986 217.09110663 357.94376723 215 361 Z " fill="#452E64" transform="translate(233,18)"/>
<path d="M0 0 C3.25062803 1.43632401 6.0424498 3.48821571 8.93359375 5.52734375 C36.71156456 24.5326057 69.9585852 33.22558569 103.4140625 33.0625 C104.53049637 33.06108505 105.64693024 33.0596701 106.79719543 33.05821228 C110.32185684 33.05266742 113.84645193 33.04012555 117.37109375 33.02734375 C119.77799387 33.02232161 122.18489499 33.01775996 124.59179688 33.01367188 C130.45575134 33.00271613 136.31966781 32.98603397 142.18359375 32.96484375 C142.25345876 45.20532077 142.30658899 57.44574944 142.33903027 69.68638611 C142.35460947 75.37172548 142.3757044 81.05692727 142.40991211 86.7421875 C142.4427841 92.2405836 142.46050482 97.73884833 142.46822548 103.23733521 C142.47371945 105.32302922 142.48444598 107.40871699 142.50078392 109.49435425 C142.61650776 124.8958842 142.30703773 140.04349582 135.49609375 154.21484375 C135.14796631 154.96443359 134.79983887 155.71402344 134.44116211 156.48632812 C129.27369624 167.31627683 122.47767693 176.3405821 114.18359375 184.96484375 C112.87648438 186.36669922 112.87648438 186.36669922 111.54296875 187.796875 C96.64813749 203.4765991 78.0317419 215.12888774 60.10546875 227.00390625 C54.51744981 230.71492396 48.98210134 234.48478442 43.49804688 238.34765625 C39.27542029 241.29814976 34.96962122 244.12249248 30.66918945 246.95776367 C26.16409951 249.94104427 21.71441561 252.98650732 17.3046875 256.109375 C16.31823242 256.80160156 15.33177734 257.49382812 14.31542969 258.20703125 C12.37908898 259.56857098 10.45103613 260.94198806 8.53222656 262.328125 C7.64760742 262.946875 6.76298828 263.565625 5.8515625 264.203125 C5.07063232 264.76040283 4.28970215 265.31768066 3.48510742 265.8918457 C0.55992178 267.25560839 -0.78795376 266.96154963 -3.81640625 265.96484375 C-6.19250204 264.54777458 -8.42987191 263.1069549 -10.69140625 261.52734375 C-12.03368058 260.61042293 -13.37613344 259.69376339 -14.71875 258.77734375 C-15.40050293 258.308125 -16.08225586 257.83890625 -16.78466797 257.35546875 C-19.31036346 255.62675432 -21.8594332 253.93521344 -24.41186523 252.24633789 C-30.87035094 247.97235258 -37.26230682 243.60726978 -43.63354492 239.20458984 C-48.57489676 235.79786729 -53.56222 232.46586743 -58.56640625 229.15234375 C-76.70460224 217.11015885 -94.94873472 204.95097797 -110.81640625 189.96484375 C-111.71101563 189.14628906 -112.605625 188.32773437 -113.52734375 187.484375 C-130.97767795 170.93832983 -142.55112118 147.84965267 -143.34578419 123.61534595 C-143.4125728 118.55957972 -143.36909992 113.5086735 -143.3046875 108.453125 C-143.295334 106.26068437 -143.28822994 104.06823312 -143.2832489 101.8757782 C-143.26437861 96.1727387 -143.21545554 90.47036062 -143.159729 84.76757812 C-143.10809983 78.92131491 -143.08564264 73.07494228 -143.06054688 67.22851562 C-143.00731293 55.80700492 -142.92224951 44.38597984 -142.81640625 32.96484375 C-141.80111092 32.97198143 -141.80111092 32.97198143 -140.76530457 32.97926331 C-134.55203937 33.02214851 -128.33886601 33.05327272 -122.12548828 33.07470703 C-119.78855536 33.08464597 -117.45163447 33.09820178 -115.11474609 33.11572266 C-97.00405789 33.24791746 -78.8030599 33.0904057 -61.06640625 28.96484375 C-60.17429443 28.75827148 -59.28218262 28.55169922 -58.36303711 28.33886719 C-38.79758802 23.46065032 -18.8324359 14.55895291 -3.6484375 1.08203125 C-1.81640625 -0.03515625 -1.81640625 -0.03515625 0 0 Z M53.18359375 74.96484375 C52.32507813 75.90263672 52.32507813 75.90263672 51.44921875 76.859375 C50.29519851 78.15897119 49.1562062 79.47204048 48.03125 80.796875 C45.95938618 83.22792029 43.82694719 85.59663767 41.68359375 87.96484375 C39.03245381 90.9016284 36.40069204 93.85086917 33.80859375 96.83984375 C30.82441653 100.26817758 27.7612764 103.62064334 24.68359375 106.96484375 C19.84852492 112.22559567 19.84852492 112.22559567 15.05859375 117.52734375 C14.51976562 118.12675781 13.9809375 118.72617187 13.42578125 119.34375 C11.97066647 121.06027672 11.97066647 121.06027672 11.18359375 123.96484375 C10.52359375 123.96484375 9.86359375 123.96484375 9.18359375 123.96484375 C5.54725836 127.44482882 5.54725836 127.44482882 4.18359375 131.96484375 C3.59191406 132.22007812 3.00023437 132.4753125 2.390625 132.73828125 C-0.04233083 134.09040184 -1.35135682 135.46017832 -3.12890625 137.58984375 C-4.02609375 138.64751953 -4.02609375 138.64751953 -4.94140625 139.7265625 C-5.56015625 140.46519531 -6.17890625 141.20382812 -6.81640625 141.96484375 C-8.08257905 143.44800181 -9.35323427 144.92734802 -10.62890625 146.40234375 C-11.19222656 147.06105469 -11.75554687 147.71976562 -12.3359375 148.3984375 C-13.81640625 149.96484375 -13.81640625 149.96484375 -15.81640625 150.96484375 C-16.06390625 150.3925 -16.31140625 149.82015625 -16.56640625 149.23046875 C-18.00956824 146.61473764 -19.69856847 144.81710919 -21.81640625 142.71484375 C-22.51765625 142.0084375 -23.21890625 141.30203125 -23.94140625 140.57421875 C-25.65751393 138.74773976 -25.65751393 138.74773976 -27.81640625 138.96484375 C-28.14640625 137.97484375 -28.47640625 136.98484375 -28.81640625 135.96484375 C-30.28127555 134.5141016 -30.28127555 134.5141016 -32.06640625 133.15234375 C-35.42958344 130.38387472 -38.02480344 127.31476712 -40.81640625 123.96484375 C-42.62537376 122.34141137 -44.47348682 120.78998729 -46.36328125 119.26171875 C-47.81640625 117.96484375 -47.81640625 117.96484375 -48.81640625 115.96484375 C-52.56833816 114.03527877 -55.62683437 113.45183495 -59.81640625 113.96484375 C-64.09970223 116.23247103 -67.04688473 118.3849057 -68.81640625 122.96484375 C-69.02923557 129.45613806 -67.23434995 132.00200667 -62.99169922 136.67456055 C-58.8563612 141.02850061 -54.59224927 145.24947941 -50.31640625 149.46484375 C-44.82110138 154.88242154 -39.4134379 160.29077404 -34.38964844 166.15136719 C-31.92962523 168.9870364 -29.33122376 171.67231162 -26.69140625 174.33984375 C-26.19253906 174.85933594 -25.69367188 175.37882812 -25.1796875 175.9140625 C-21.1856888 179.94977398 -18.20788431 181.91972152 -12.50390625 182.02734375 C-3.65277681 179.47701832 2.35287013 170.69345447 8.18359375 163.96484375 C8.73789062 163.33707031 9.2921875 162.70929688 9.86328125 162.0625 C12.41651581 159.39810087 12.41651581 159.39810087 13.18359375 155.96484375 C14.17359375 155.63484375 15.16359375 155.30484375 16.18359375 154.96484375 C18.41291199 153.15224243 18.41291199 153.15224243 20.18359375 150.96484375 C20.18359375 149.97484375 20.18359375 148.98484375 20.18359375 147.96484375 C20.77785156 147.70703125 21.37210937 147.44921875 21.984375 147.18359375 C24.37661878 145.85787428 25.63141014 144.56105511 27.37109375 142.46484375 C30.11062978 139.22560694 32.89599581 136.04512852 35.74609375 132.90234375 C37.22627176 131.2574199 38.70549615 129.61163727 40.18359375 127.96484375 C41.1271875 126.91490234 41.1271875 126.91490234 42.08984375 125.84375 C45.12727526 122.84928677 45.12727526 122.84928677 46.18359375 118.96484375 C46.84359375 118.96484375 47.50359375 118.96484375 48.18359375 118.96484375 C51.81992914 115.48485868 51.81992914 115.48485868 53.18359375 110.96484375 C54.17359375 110.63484375 55.16359375 110.30484375 56.18359375 109.96484375 C59.21636574 106.90976349 59.21636574 106.90976349 60.18359375 102.96484375 C60.75078125 102.74441406 61.31796875 102.52398437 61.90234375 102.296875 C64.89530979 100.54926983 66.53868045 98.36654055 68.68359375 95.65234375 C69.8128125 94.23501953 69.8128125 94.23501953 70.96484375 92.7890625 C71.69703125 91.85707031 72.42921875 90.92507813 73.18359375 89.96484375 C73.91578125 89.06378906 74.64796875 88.16273438 75.40234375 87.234375 C78.44373576 83.35926807 78.4378897 80.88123212 78.18359375 75.96484375 C76.95721077 72.06271608 74.68611386 70.00798048 71.18359375 67.96484375 C62.94039111 66.16297329 58.59964472 68.99125812 53.18359375 74.96484375 Z " fill="#4A81D3" transform="translate(249.81640625,207.03515625)"/>
<path d="M0 0 C9.0801672 6.2947433 15.52336568 15.75343703 18.25390625 26.5625 C18.91364055 31.9287924 19.43583497 37.41729851 16.50390625 42.1875 C13.22597194 45.64754177 11.62239363 46.41044585 6.87890625 46.9375 C1.84687026 46.41694455 -1.07894947 44.41488253 -4.43359375 40.6875 C-5.74609375 38.5625 -5.74609375 38.5625 -7.18359375 35.4375 C-8.49267006 32.55895806 -8.49267006 32.55895806 -10.55859375 31.1875 C-14.21505575 30.14279657 -17.38048305 30.10729643 -20.99609375 31.3125 C-23.24361669 32.91787353 -23.89064967 33.92488076 -24.74609375 36.5625 C-25.2646923 42.0596446 -24.23723157 45.66919357 -21.74609375 50.5625 C-21.25109375 51.5525 -20.75609375 52.5425 -20.24609375 53.5625 C-15.3038172 59.49323187 -8.19617097 63.60392624 -0.74609375 65.5625 C10.35077212 66.50249854 19.34074719 66.07331517 28.06640625 58.875 C35.89575848 51.3452056 37.31120579 43.04130854 39.25390625 32.5625 C49.70662779 33.95619621 59.77156185 42.67892155 66.25390625 50.5625 C73.14108052 60.15913404 75.65246373 68.77644153 75.70043945 80.44750977 C75.82026075 85.58920116 76.85155767 88.4947261 80.25390625 92.5625 C82.78696882 94.80562723 82.78696882 94.80562723 85.56640625 96.8125 C93.95188104 103.49851856 100.12803026 111.89538263 102.25390625 122.5625 C103.80251425 137.47251134 101.85696376 150.02640688 92.44921875 162.08984375 C81.46290334 174.46411004 67.18693416 178.27467487 51.25390625 179.5625 C12.75438852 181.72398635 -28.36930093 175.27236948 -58.953125 150.2265625 C-61.14471681 148.19253611 -61.70637986 147.22336968 -61.88590145 144.23599243 C-61.89277257 143.25528778 -61.89964369 142.27458313 -61.90672302 141.26416016 C-61.91676865 140.13995163 -61.92681427 139.0157431 -61.93716431 137.85746765 C-61.9429953 136.61801895 -61.94882629 135.37857025 -61.95483398 134.1015625 C-61.96461777 132.80060135 -61.97440155 131.4996402 -61.98448181 130.15925598 C-62.01589513 125.83536772 -62.03614525 121.51146012 -62.0546875 117.1875 C-62.05798482 116.45124012 -62.06128214 115.71498024 -62.06467938 114.95640945 C-62.09547555 108.00792933 -62.12217626 101.05944483 -62.13909817 94.11091614 C-62.16097116 85.23392117 -62.20285869 76.35753371 -62.27253574 67.48078156 C-62.31989216 61.23435567 -62.34404765 54.98809293 -62.35129505 48.74149323 C-62.35623636 45.01407522 -62.37116828 41.28734143 -62.41103935 37.56011963 C-62.45502969 33.39257585 -62.45098326 29.22636254 -62.44311523 25.05859375 C-62.46311584 23.8353389 -62.48311646 22.61208405 -62.50372314 21.35176086 C-62.43594498 13.33312832 -60.8367616 7.84846862 -55.74609375 1.5625 C-53.24137188 -0.85264241 -50.7585701 -2.69744146 -47.74609375 -4.4375 C-47.05257813 -4.85 -46.3590625 -5.2625 -45.64453125 -5.6875 C-30.86947367 -12.9988687 -13.19452608 -8.21588088 0 0 Z " fill="#996BB9" transform="translate(321.74609375,42.4375)"/>
<path d="M0 0 C7.46800124 7.73804871 8.67675276 16.16456616 8.61621094 26.5456543 C8.62818512 27.8330954 8.6401593 29.1205365 8.65249634 30.44699097 C8.68359371 33.9490194 8.68326487 37.45035617 8.67499065 40.95248771 C8.67080753 43.88506887 8.68183633 46.81751745 8.69263482 49.75007564 C8.7176936 56.66886106 8.71670625 63.58730458 8.69921875 70.50610352 C8.68166892 77.62978716 8.70815771 84.75235406 8.75618529 91.87587231 C8.79599924 98.01039186 8.8085904 104.14455918 8.79947114 110.27920085 C8.79429944 113.93541675 8.79925276 117.59088189 8.83043671 121.24698448 C8.86377556 125.32122464 8.84029236 129.39325438 8.81152344 133.4675293 C8.82883514 134.67030014 8.84614685 135.87307098 8.86398315 137.11228943 C8.77940987 142.70545007 8.62207354 146.33897896 4.59771729 150.45124817 C3.40971445 151.44465958 2.18973266 152.40138512 0.9375 153.3125 C0.33084881 153.78008571 -0.27580238 154.24767141 -0.90083694 154.72942638 C-2.58020658 155.99809135 -4.2998821 157.1625441 -6.0625 158.3125 C-6.71130127 158.73692383 -7.36010254 159.16134766 -8.02856445 159.59863281 C-29.16225065 173.10092273 -56.93591893 181.24444167 -82.0625 180.3125 C-80.0625 174.3125 -80.0625 174.3125 -79.015625 171.5859375 C-76.54085703 163.08652949 -76.89900789 152.54620737 -80.7421875 144.55078125 C-86.4739283 134.8339544 -93.74941533 128.02742786 -104.73046875 124.77734375 C-110.46820976 123.63363993 -116.88308209 123.23722062 -122.0625 126.3125 C-124.56281654 130.06297482 -124.59853554 131.87106266 -124.0625 136.3125 C-121.94956709 139.63282315 -120.15268129 141.02157644 -116.33984375 142.0390625 C-115.32019531 142.25304687 -114.30054688 142.46703125 -113.25 142.6875 C-106.99577932 144.04476614 -103.19863562 146.45091651 -99.0625 151.3125 C-96.59927166 155.31524606 -96.37606625 159.7108515 -97.0625 164.3125 C-99.13107917 170.47351146 -102.28293888 174.17925078 -107.97265625 177.390625 C-114.65093081 180.33655546 -122.30894011 177.81368663 -128.8515625 175.6328125 C-140.26715808 170.93880848 -149.00400034 161.9344134 -154.09765625 150.76953125 C-158.93334437 138.45516758 -158.27580677 125.41536853 -153.0625 113.3125 C-148.7505072 105.50724722 -142.89604407 99.14958021 -135.1875 94.625 C-132.58260882 93.01609663 -132.1293743 92.17153594 -131.0625 89.3125 C-130.86394912 86.79374023 -130.74639293 84.33329569 -130.6875 81.8125 C-130.03165465 67.56644048 -124.60832796 54.82223912 -114.08203125 44.9375 C-110.00139731 41.65404987 -105.57276619 38.95953123 -101.0625 36.3125 C-100.051875 35.714375 -99.04125 35.11625 -98 34.5 C-85.67338096 29.51689869 -73.22178218 30.30399859 -61.0625 35.3125 C-53.95639303 38.89731769 -47.78602237 43.09817541 -44.0625 50.3125 C-43.4375 52.52734375 -43.4375 52.52734375 -43 54.6875 C-42.46889032 58.40268036 -42.46889032 58.40268036 -39.8125 59.8125 C-33.7204347 60.96038521 -33.7204347 60.96038521 -28.25 58.375 C-25.36215641 54.33201898 -24.66820074 51.24526426 -25.0625 46.3125 C-27.89453166 35.4101036 -37.05661051 27.4015022 -46.0625 21.3125 C-50.60355957 18.72501969 -55.32721892 16.51911713 -60.0625 14.3125 C-61.39841725 13.65102641 -62.73311903 12.9870135 -64.0625 12.3125 C-59.8298279 2.88327998 -51.24362059 -1.8745756 -42.0625 -5.6875 C-28.61398796 -10.61862108 -11.51348799 -8.70955665 0 0 Z " fill="#996BB8" transform="translate(231.0625,41.6875)"/>
<path d="M0 0 C2.75329021 1.79562405 4.52627461 3.05254922 6 6 C6.5 8.5625 6.5 8.5625 6 12 C4.47265625 14.18359375 4.47265625 14.18359375 2.5625 16.5 C-1.30712148 21.13428835 -1.30712148 21.13428835 -2 27 C1.39966463 33.53781659 6.11094299 37.08979832 12.9375 39.46875 C16.72103227 40.44329619 20.46030484 40.76984758 24 39 C31.08958838 38.4188862 31.08958838 38.4188862 34.9375 40.875 C37.97304128 44.00252738 37.97304128 44.00252738 38.0546875 47.0234375 C37.57170397 53.34422191 37.57170397 53.34422191 34.875 56.4375 C26.25977027 61.11969007 16.17162851 61.22406409 6.7109375 59.34765625 C-3.75452885 56.19719933 -12.74242659 50.02254771 -19 41 C-19.866794 39.2873617 -20.70005501 37.55736384 -21.5 35.8125 C-23.74816586 31.07529337 -26.04002273 27.98796684 -31 26 C-35.02553057 25.12961501 -38.40630481 25.1279781 -42.0703125 27.1328125 C-43.39197598 28.03983646 -44.70974837 28.95255812 -46.0234375 29.87109375 C-49.54772275 31.88397604 -52.01065869 31.58859134 -56 31 C-58.8100346 29.20636089 -60.50940468 27.98119065 -62 25 C-62.58141547 17.90673127 -62.58141547 17.90673127 -60.359375 14.44140625 C-57.72489954 11.71533479 -55.35761727 10.36046414 -51.9375 8.75 C-50.89464844 8.24984375 -49.85179687 7.7496875 -48.77734375 7.234375 C-41.28796698 3.9057631 -32.68885042 3.76574661 -24.9375 6.5 C-24.26589844 6.7784375 -23.59429687 7.056875 -22.90234375 7.34375 C-20.70517149 8.21740688 -20.70517149 8.21740688 -17 8 C-15.29006566 6.3777546 -13.62652316 4.70586575 -12 3 C-7.97525616 -0.07151504 -5.0351348 -0.62939185 0 0 Z " fill="#432B64" transform="translate(347,134)"/>
<path d="M0 0 C8.4186709 2.66670967 15.47880342 7.80793735 20.9375 14.74609375 C23.37682214 17.67328031 24.51407719 18.33868207 28.125 19.37109375 C31.70623089 19.23431063 35.19351799 18.8002505 38.75 18.3671875 C42.56111373 18.37159851 44.13414224 19.08300585 47.125 21.37109375 C49.45567577 24.589646 49.59241137 27.47599901 49.125 31.37109375 C47.25671509 35.51381246 45.36004301 37.61235908 41.1875 39.24609375 C32.54574817 41.61973282 23.59509403 41.46012467 15.41015625 37.70703125 C10.50767387 34.84096463 6.50910017 31.23097835 3.125 26.68359375 C-0.7738666 22.17552925 -5.88360261 20.4588379 -11.625 19.37109375 C-14.3598878 18.80427762 -15.98849374 18.30465839 -18.4375 16.87109375 C-20.77019973 12.81422466 -20.67554096 8.91728507 -19.875 4.37109375 C-15.7201043 -3.04836286 -7.29706013 -1.5962319 0 0 Z " fill="#432B64" transform="translate(159.875,122.62890625)"/>
<path d="M0 0 C0.66 0 1.32 0 2 0 C2 33.33 2 66.66 2 101 C1.01 100.67 0.02 100.34 -1 100 C-0.67 67 -0.34 34 0 0 Z " fill="#32316C" transform="translate(105,240)"/>
<path d="M0 0 C-3.83428523 2.55619016 -4.55709287 1.80239794 -9 1 C-12.68757518 0.84078206 -16.37201003 0.8603842 -20.0625 0.875 C-21.04283203 0.87113281 -22.02316406 0.86726562 -23.03320312 0.86328125 C-24.45729492 0.86521484 -24.45729492 0.86521484 -25.91015625 0.8671875 C-26.76746338 0.86831543 -27.62477051 0.86944336 -28.50805664 0.87060547 C-31.04602388 0.926045 -31.04602388 0.926045 -33.63061523 1.63330078 C-36 2 -36 2 -39 0 C-24.75629658 -3.49334624 -14.24370342 -3.49334624 0 0 Z " fill="#5D5072" transform="translate(313,15)"/>
<path d="M0 0 C0.99 0.33 1.98 0.66 3 1 C-0.28156314 4.42369293 -4.00977058 7.02692846 -7.875 9.75 C-8.58269531 10.26949219 -9.29039062 10.78898437 -10.01953125 11.32421875 C-15.27125095 15.01118025 -15.27125095 15.01118025 -18.80078125 14.95703125 C-21.79873336 13.65241621 -24.35388343 11.90766544 -27 10 C-24.22899606 8.61449803 -22.0665294 8.8122533 -19 9 C-18.01 9.66 -17.02 10.32 -16 11 C-12.8371515 10.19595537 -12.8371515 10.19595537 -10 9 C-10 8.34 -10 7.68 -10 7 C-8.02 6.34 -6.04 5.68 -4 5 C-4 4.34 -4 3.68 -4 3 C-4.66 2.67 -5.32 2.34 -6 2 C-2.25 0.875 -2.25 0.875 0 2 C0 1.34 0 0.68 0 0 Z " fill="#577EC9" transform="translate(267,459)"/>
<path d="M0 0 C0.33 0 0.66 0 1 0 C2.48507922 12.84392841 2.48729191 26.02772674 -3 38 C-3.33 37.34 -3.66 36.68 -4 36 C-5.485 36.495 -5.485 36.495 -7 37 C-7 36.01 -7 35.02 -7 34 C-5.35 33.34 -3.7 32.68 -2 32 C-1.96241577 30.75911621 -1.96241577 30.75911621 -1.92407227 29.49316406 C-1.80803651 25.74528808 -1.685344 21.99765875 -1.5625 18.25 C-1.52318359 16.94804687 -1.48386719 15.64609375 -1.44335938 14.3046875 C-1.40146484 13.05429688 -1.35957031 11.80390625 -1.31640625 10.515625 C-1.27974854 9.36352539 -1.24309082 8.21142578 -1.20532227 7.02441406 C-1.03547826 4.52259776 -0.72031525 2.38908832 0 0 Z " fill="#493B5D" transform="translate(444,163)"/>
<path d="M0 0 C1.32 0 2.64 0 4 0 C3.66790495 5.36383818 0.62402514 8.0349719 -2.9375 11.6875 C-3.76411133 12.55858398 -3.76411133 12.55858398 -4.60742188 13.44726562 C-6.71143878 15.65865642 -8.8416435 17.8416435 -11 20 C-11.4375 17.875 -11.4375 17.875 -11 15 C-8.87310854 12.723853 -6.4976567 10.8541278 -4 9 C-4.33 7.35 -4.66 5.7 -5 4 C-4.01 3.67 -3.02 3.34 -2 3 C-1.34 2.01 -0.68 1.02 0 0 Z " fill="#5D84C6" transform="translate(279,302)"/>
<path d="M0 0 C3.48841086 0.29070091 5.92407264 2.1092855 8.75 4.0625 C9.94882812 4.88427734 9.94882812 4.88427734 11.171875 5.72265625 C11.77515625 6.14417969 12.3784375 6.56570312 13 7 C12.34 7.66 11.68 8.32 11 9 C10.34 8.67 9.68 8.34 9 8 C9 7.34 9 6.68 9 6 C6.36 6.66 3.72 7.32 1 8 C0.67 7.34 0.34 6.68 0 6 C-2.52733235 5.34444881 -2.52733235 5.34444881 -5 5 C-2.75 2.4375 -2.75 2.4375 0 0 Z " fill="#5380C9" transform="translate(248,207)"/>
<path d="M0 0 C0 0.99 0 1.98 0 3 C-0.66 3 -1.32 3 -2 3 C-2 3.66 -2 4.32 -2 5 C-2.969375 5.2475 -3.93875 5.495 -4.9375 5.75 C-5.948125 6.1625 -6.95875 6.575 -8 7 C-8.165 7.66 -8.33 8.32 -8.5 9 C-8.665 9.66 -8.83 10.32 -9 11 C-12.27209379 12.6360469 -14.15712734 13.19156197 -17.75 12.375 C-20.27095212 10.83441815 -20.9963661 9.73718336 -22 7 C-21.278125 7.350625 -20.55625 7.70125 -19.8125 8.0625 C-16.5023298 9.16589007 -15.31641365 8.99111213 -12 8 C-9.84816415 6.72293807 -7.74483528 5.36180904 -5.6875 3.9375 C-4.61886719 3.20402344 -3.55023438 2.47054688 -2.44921875 1.71484375 C-1.64097656 1.14894531 -0.83273437 0.58304687 0 0 Z " fill="#352B66" transform="translate(264,464)"/>
<path d="M0 0 C0 3.14668286 -0.52735129 4.31458176 -2 7 C-2.33 7.66 -2.66 8.32 -3 9 C-3.66 9 -4.32 9 -5 9 C-5 9.66 -5 10.32 -5 11 C-5.51949219 11.24234375 -6.03898437 11.4846875 -6.57421875 11.734375 C-10.81271608 13.77136078 -14.43232946 15.87828828 -18 19 C-18.66 18.67 -19.32 18.34 -20 18 C-19.05898438 17.20335937 -18.11796875 16.40671875 -17.1484375 15.5859375 C-15.8905099 14.51576028 -14.63270389 13.44544013 -13.375 12.375 C-12.75753906 11.85292969 -12.14007813 11.33085937 -11.50390625 10.79296875 C-7.47762939 7.36003795 -3.69590452 3.78688064 0 0 Z " fill="#332F6A" transform="translate(362,393)"/>
<path d="M0 0 C2.9375 0.75 2.9375 0.75 6 2 C6.875 4.125 6.875 4.125 7 6 C6.01 6.33 5.02 6.66 4 7 C3.67 6.01 3.34 5.02 3 4 C2.01 4 1.02 4 0 4 C-0.33 4.66 -0.66 5.32 -1 6 C-1.66 6 -2.32 6 -3 6 C-3 6.99 -3 7.98 -3 9 C-6.465 10.485 -6.465 10.485 -10 12 C-10 10 -10 10 -7.625 7.375 C-5 5 -5 5 -3 5 C-2.690625 4.360625 -2.38125 3.72125 -2.0625 3.0625 C-1 1 -1 1 0 0 Z " fill="#4D7BC8" transform="translate(280,345)"/>
<path d="M0 0 C0.66 0 1.32 0 2 0 C2.04898437 0.62648438 2.09796875 1.25296875 2.1484375 1.8984375 C2.22320313 2.71570313 2.29796875 3.53296875 2.375 4.375 C2.44460937 5.18710937 2.51421875 5.99921875 2.5859375 6.8359375 C2.82892588 9.20334191 2.82892588 9.20334191 5 11 C5.8125 12.875 5.8125 12.875 6 15 C4.5625 17.25 4.5625 17.25 3 19 C0.04328652 12.47059106 -0.35368021 7.12600133 0 0 Z " fill="#584D6C" transform="translate(17,377)"/>
<path d="M0 0 C0 3 0 3 -1.3125 4.375 C-1.869375 4.91125 -2.42625 5.4475 -3 6 C-3.474375 6.886875 -3.94875 7.77375 -4.4375 8.6875 C-4.953125 9.450625 -5.46875 10.21375 -6 11 C-7.32 11 -8.64 11 -10 11 C-10 10.34 -10 9.68 -10 9 C-10.66 8.67 -11.32 8.34 -12 8 C-10.75312408 7.03760548 -9.50235031 6.08025991 -8.25 5.125 C-7.55390625 4.59132813 -6.8578125 4.05765625 -6.140625 3.5078125 C-4.15277397 2.10761086 -2.20156614 1.02144735 0 0 Z " fill="#5C4E72" transform="translate(117,61)"/>
<path d="M0 0 C2.04119788 1.61594832 4.04072937 3.2856382 6 5 C6 5.66 6 6.32 6 7 C6.66 7 7.32 7 8 7 C8.33 8.32 8.66 9.64 9 11 C9.66 11 10.32 11 11 11 C10.67 11.66 10.34 12.32 10 13 C9.01 12.67 8.02 12.34 7 12 C7 11.34 7 10.68 7 10 C6.01 10 5.02 10 4 10 C4 9.34 4 8.68 4 8 C3.34 7.67 2.68 7.34 2 7 C0.95191959 5.02477154 -0.0520411 3.02518491 -1 1 C-0.67 0.67 -0.34 0.34 0 0 Z " fill="#5A4E6D" transform="translate(424,126)"/>
<path d="M0 0 C2.42289685 0.41774084 3.70879065 0.69612938 5.4375 2.5 C7.48674607 4.46727622 9.25009635 4.50642755 12 5 C14 7 14 7 14 9 C8.96410317 8.8972266 6.67114489 8.10128031 3.0625 4.5 C0 1.21538462 0 1.21538462 0 0 Z " fill="#584A6B" transform="translate(448,270)"/>
<path d="M0 0 C4.07376031 1.61010527 6.76507069 4.53822271 9.75 7.625 C10.25660156 8.140625 10.76320312 8.65625 11.28515625 9.1875 C12.52803902 10.45383339 13.76465276 11.7263144 15 13 C14.34 13.66 13.68 14.32 13 15 C10.82722286 12.88094537 8.66173092 10.75527122 6.5 8.625 C5.87996094 8.02171875 5.25992188 7.4184375 4.62109375 6.796875 C4.03457031 6.21679688 3.44804687 5.63671875 2.84375 5.0390625 C2.29912109 4.50490723 1.75449219 3.97075195 1.19335938 3.42041016 C0 2 0 2 0 0 Z " fill="#5F81C3" transform="translate(214,373)"/>
<path d="M0 0 C0.66 0 1.32 0 2 0 C2 1.32 2 2.64 2 4 C0.36368108 5.04892238 -1.30485863 6.04906703 -3 7 C-3.33 7.99 -3.66 8.98 -4 10 C-5.25 11.6875 -5.25 11.6875 -7 13 C-9.6875 13.1875 -9.6875 13.1875 -12 13 C-11.319375 12.34 -10.63875 11.68 -9.9375 11 C-6.93989787 8.02809161 -4.25212981 4.81463908 -1.55078125 1.57421875 C-1.03902344 1.05472656 -0.52726563 0.53523438 0 0 Z " fill="#587CC3" transform="translate(253,375)"/>
<path d="M0 0 C0.99 0 1.98 0 3 0 C2.91433603 2.912575 2.42089045 4.56798024 0.375 6.66796875 C-1.38391375 8.16091772 -3.16313019 9.60436262 -5 11 C-5.66 10.34 -6.32 9.68 -7 9 C-6.67 8.01 -6.34 7.02 -6 6 C-2.9375 4.8125 -2.9375 4.8125 0 4 C-0.33 3.01 -0.66 2.02 -1 1 C-0.67 0.67 -0.34 0.34 0 0 Z " fill="#594E6D" transform="translate(48,266)"/>
<path d="M0 0 C-3 2 -3 2 -5 2 C-5 2.66 -5 3.32 -5 4 C-6.26607607 4.53229326 -7.53810412 5.05044544 -8.8125 5.5625 C-9.52019531 5.85253906 -10.22789063 6.14257812 -10.95703125 6.44140625 C-13 7 -13 7 -16 6 C-10.59422159 1.88131168 -6.91995707 -0.88339877 0 0 Z " fill="#635775" transform="translate(56,314)"/>
<path d="M0 0 C6.03331362 4.98404168 11.5184171 10.41915303 17 16 C14 16 14 16 11.625 13.75 C10.75875 12.8425 9.8925 11.935 9 11 C8.154375 10.34 7.30875 9.68 6.4375 9 C3.85415665 6.88033366 1.93316435 4.72074983 0 2 C0 1.34 0 0.68 0 0 Z " fill="#2F2D65" transform="translate(129,387)"/>
<path d="M0 0 C4.20626034 1.50223584 5.73900021 4.28550034 8 8 C7.67 8.66 7.34 9.32 7 10 C3.34683329 8.75023244 2.21934164 8.32901247 0 5 C-0.125 2.3125 -0.125 2.3125 0 0 Z " fill="#5D5072" transform="translate(456,320)"/>
<path d="M0 0 C3.37512515 3.37512515 2.9788616 7.8373882 3.0625 12.4375 C3.041875 13.283125 3.02125 14.12875 3 15 C2.01 15.33 1.02 15.66 0 16 C0 10.72 0 5.44 0 0 Z " fill="#403156" transform="translate(87,230)"/>
<path d="M0 0 C2.97 0 5.94 0 9 0 C9.66 2.64 10.32 5.28 11 8 C6.40378078 6.5129879 3.53027653 4.20187872 0 1 C0 0.67 0 0.34 0 0 Z " fill="#5781CD" transform="translate(157,411)"/>
<path d="M0 0 C2.375 0.6875 2.375 0.6875 5 2 C6.1875 4.5625 6.1875 4.5625 7 7 C7.66 7.33 8.32 7.66 9 8 C9 9.65 9 11.3 9 13 C4.66965806 9.15080717 2.3439244 5.27710354 0 0 Z " fill="#6A5F7B" transform="translate(102,383)"/>
<path d="M0 0 C0.66 0.33 1.32 0.66 2 1 C2 1.66 2 2.32 2 3 C2.66 3.33 3.32 3.66 4 4 C4.33 4.66 4.66 5.32 5 6 C5.66 6.66 6.32 7.32 7 8 C6.67 8.66 6.34 9.32 6 10 C4 10 4 10 1.5625 7.625 C0.716875 6.75875 -0.12875 5.8925 -1 5 C-1.99 4.34 -2.98 3.68 -4 3 C-3.67 2.34 -3.34 1.68 -3 1 C-2.01 1.33 -1.02 1.66 0 2 C0 1.34 0 0.68 0 0 Z " fill="#615372" transform="translate(129,409)"/>
<path d="M0 0 C4.62 0 9.24 0 14 0 C14 0.66 14 1.32 14 2 C14.66 2.33 15.32 2.66 16 3 C15.01 3 14.02 3 13 3 C12.67 3.66 12.34 4.32 12 5 C12 4.01 12 3.02 12 2 C8.04 2 4.08 2 0 2 C0 1.34 0 0.68 0 0 Z " fill="#5D5171" transform="translate(463,230)"/>
<path d="M0 0 C0.33 0.66 0.66 1.32 1 2 C0.67 2.66 0.34 3.32 0 4 C0.66 4.33 1.32 4.66 2 5 C1.38125 5.4125 0.7625 5.825 0.125 6.25 C-2.06768281 8.05573879 -2.92788417 9.4090534 -4 12 C-4.99 12 -5.98 12 -7 12 C-6.67 10.68 -6.34 9.36 -6 8 C-5.34 8 -4.68 8 -4 8 C-3.71125 7.236875 -3.4225 6.47375 -3.125 5.6875 C-2 3 -2 3 0 0 Z " fill="#695F7D" transform="translate(67,133)"/>
<path d="M0 0 C0.33 0 0.66 0 1 0 C1.33 3.3 1.66 6.6 2 10 C2.66 10 3.32 10 4 10 C3.25 11.9375 3.25 11.9375 2 14 C-0.125 14.75 -0.125 14.75 -2 15 C-2 11 -2 11 -1 10 C-0.76712992 8.31816052 -0.58735834 6.6287584 -0.4375 4.9375 C-0.31181641 3.55884766 -0.31181641 3.55884766 -0.18359375 2.15234375 C-0.12300781 1.44207031 -0.06242187 0.73179688 0 0 Z " fill="#756689" transform="translate(80,112)"/>
<path d="M0 0 C-3.88672813 3.18005028 -7.89952133 6.10554447 -12 9 C-12.66 8.67 -13.32 8.34 -14 8 C-13.34 7.01 -12.68 6.02 -12 5 C-11.34 5 -10.68 5 -10 5 C-10 4.34 -10 3.68 -10 3 C-3.375 -1.125 -3.375 -1.125 0 0 Z " fill="#655974" transform="translate(298,466)"/>
<path d="M0 0 C3.01815987 1.06523289 5.34482774 2.23706907 8 4.0625 C10.84594422 5.90050564 12.68329188 6.60979904 16 7 C15.67 8.32 15.34 9.64 15 11 C13.2458877 9.92333797 11.49687413 8.83836661 9.75 7.75 C8.77546875 7.14671875 7.8009375 6.5434375 6.796875 5.921875 C4.20294755 4.13945558 2.13622381 2.29898372 0 0 Z " fill="#5B7DC5" transform="translate(181,428)"/>
<path d="M0 0 C0.99 0 1.98 0 3 0 C3.226875 0.99 3.45375 1.98 3.6875 3 C4.77894811 6.9404487 6.74991389 9.9681864 9.07421875 13.30078125 C9.53248047 14.14189453 9.53248047 14.14189453 10 15 C9.67 15.66 9.34 16.32 9 17 C7.86676537 15.29711802 6.74377765 13.58741477 5.625 11.875 C4.99851562 10.92367188 4.37203125 9.97234375 3.7265625 8.9921875 C2.02318931 6.04018781 0.95806591 3.26129506 0 0 Z " fill="#5B82C9" transform="translate(115,363)"/>
<path d="M0 0 C0.33 0.99 0.66 1.98 1 3 C-0.60226955 3.22245393 -2.20696767 3.42746669 -3.8125 3.625 C-4.70582031 3.74101562 -5.59914063 3.85703125 -6.51953125 3.9765625 C-9 4 -9 4 -12 2 C-7.82262526 0.40861915 -4.46839215 -0.21278058 0 0 Z " fill="#3F295C" transform="translate(328,234)"/>
<path d="M0 0 C1.051875 0.58007812 1.051875 0.58007812 2.125 1.171875 C7.69832834 4.23114762 13.29206196 7.19987945 19 10 C17.37890625 10.70703125 17.37890625 10.70703125 15 11 C12.08984375 9.63671875 12.08984375 9.63671875 8.9375 7.6875 C7.89464844 7.05199219 6.85179687 6.41648438 5.77734375 5.76171875 C3.83679332 4.53079295 1.91207155 3.27471436 0 2 C0 1.34 0 0.68 0 0 Z " fill="#5B82C8" transform="translate(261,215)"/>
<path d="M0 0 C-1.3418344 4.02550319 -3.4227573 4.88285636 -7 7 C-7.66 7 -8.32 7 -9 7 C-9.33 7.66 -9.66 8.32 -10 9 C-10 8.34 -10 7.68 -10 7 C-10.66 6.67 -11.32 6.34 -12 6 C-9.77747979 3.44410176 -8.26648404 2.71454338 -5 2 C-2 0 -2 0 0 0 Z " fill="#5C4F6C" transform="translate(348,430)"/>
<path d="M0 0 C1.32 0 2.64 0 4 0 C3.64950425 3.24208567 3.43778819 4.61527704 0.9375 6.8125 C0.298125 7.204375 -0.34125 7.59625 -1 8 C-1.625 5.6875 -1.625 5.6875 -2 3 C-1.34 2.01 -0.68 1.02 0 0 Z " fill="#577ECD" transform="translate(279,302)"/>
<path d="M0 0 C0.33 0.99 0.66 1.98 1 3 C-3.455 6.96 -3.455 6.96 -8 11 C-8.33 10.01 -8.66 9.02 -9 8 C-8.01 7.67 -7.02 7.34 -6 7 C-4.79117904 4.99983534 -4.79117904 4.99983534 -4 3 C-3.01 3 -2.02 3 -1 3 C-0.67 2.01 -0.34 1.02 0 0 Z " fill="#5C506B" transform="translate(427,218)"/>
<path d="M0 0 C1.9375 0.3125 1.9375 0.3125 4 1 C4.33 1.99 4.66 2.98 5 4 C5.66 4 6.32 4 7 4 C7.99 5.485 7.99 5.485 9 7 C9.99 7.33 10.98 7.66 12 8 C11.67 8.99 11.34 9.98 11 11 C9 11 9 11 7.34375 9.35546875 C6.7353125 8.64003906 6.126875 7.92460937 5.5 7.1875 C4.8915625 6.47980469 4.283125 5.77210938 3.65625 5.04296875 C2 3 2 3 0 0 Z " fill="#5B79B5" transform="translate(225,347)"/>
<path d="M0 0 C3 1 3 1 4 3 C2.68 3.33 1.36 3.66 0 4 C-0.66 6.64 -1.32 9.28 -2 12 C-2.33 12 -2.66 12 -3 12 C-3.33 9.03 -3.66 6.06 -4 3 C-3.34 2.67 -2.68 2.34 -2 2 C-1.34 2.33 -0.68 2.66 0 3 C0 2.01 0 1.02 0 0 Z " fill="#6A5F7E" transform="translate(464,246)"/>
<path d="M0 0 C2 1 2 1 3 3 C2.34 3 1.68 3 1 3 C1 4.32 1 5.64 1 7 C0.34 7 -0.32 7 -1 7 C-1 8.32 -1 9.64 -1 11 C-1.99 11 -2.98 11 -4 11 C-3.39301257 6.87248551 -1.96189209 3.6678852 0 0 Z " fill="#5F5270" transform="translate(8,238)"/>
<path d="M0 0 C1.9375 1.125 1.9375 1.125 4 3 C4.75 6.1875 4.75 6.1875 5 9 C3.35 8.67 1.7 8.34 0 8 C-0.38063221 5.6739143 -0.71269945 3.33944736 -1 1 C-0.67 0.67 -0.34 0.34 0 0 Z " fill="#3D295C" transform="translate(234,480)"/>
<path d="M0 0 C0.66 0 1.32 0 2 0 C1.52651586 4.1666604 0.95303159 6.92884715 -2 10 C-2.66 10 -3.32 10 -4 10 C-4.1875 7.625 -4.1875 7.625 -4 5 C-3.01 4.34 -2.02 3.68 -1 3 C-0.67 2.01 -0.34 1.02 0 0 Z " fill="#514164" transform="translate(478,388)"/>
<path d="M0 0 C2.75 -0.3125 2.75 -0.3125 6 0 C8.375 2.5 8.375 2.5 10 5 C9.01 5.66 8.02 6.32 7 7 C6.54625 6.525625 6.0925 6.05125 5.625 5.5625 C4.06741796 3.90972192 4.06741796 3.90972192 2 3 C2 2.34 2 1.68 2 1 C1.34 0.67 0.68 0.34 0 0 Z " fill="#655977" transform="translate(175,448)"/>
<path d="M0 0 C0.99 0.33 1.98 0.66 3 1 C4.1875 3.5625 4.1875 3.5625 5 6 C5.66 6 6.32 6 7 6 C7.66 7.32 8.32 8.64 9 10 C8.01 10 7.02 10 6 10 C4.39453125 8.3203125 4.39453125 8.3203125 2.8125 6.125 C2.01779297 5.04605469 2.01779297 5.04605469 1.20703125 3.9453125 C0 2 0 2 0 0 Z " fill="#645775" transform="translate(431,391)"/>
<path d="M0 0 C0.33 0.66 0.66 1.32 1 2 C3.02463255 2.65213292 3.02463255 2.65213292 5 3 C2.03 5.475 2.03 5.475 -1 8 C-1.625 5.125 -1.625 5.125 -2 2 C-1.34 1.34 -0.68 0.68 0 0 Z " fill="#5681CD" transform="translate(244,341)"/>
<path d="M0 0 C0.33 0.66 0.66 1.32 1 2 C0.67 2.66 0.34 3.32 0 4 C0.99 3.67 1.98 3.34 3 3 C3.33 3.66 3.66 4.32 4 5 C2.68 6.32 1.36 7.64 0 9 C-0.99 8.67 -1.98 8.34 -3 8 C-2.45276317 4.62537285 -1.9451 2.91765 0 0 Z " fill="#5B4B73" transform="translate(38,322)"/>
<path d="M0 0 C1.17949219 0.01804687 2.35898438 0.03609375 3.57421875 0.0546875 C4.92966797 0.08949219 4.92966797 0.08949219 6.3125 0.125 C6.3125 1.115 6.3125 2.105 6.3125 3.125 C5.64863281 3.02960938 4.98476562 2.93421875 4.30078125 2.8359375 C-2.40395525 1.92184678 -2.40395525 1.92184678 -8.6875 4.125 C-9.0175 3.465 -9.3475 2.805 -9.6875 2.125 C-6.05554504 -0.29630331 -4.30400652 -0.08522785 0 0 Z " fill="#7A98CD" transform="translate(193.6875,319.875)"/>
<path d="M0 0 C1.5048792 2.0065056 2.06059734 3.43175699 1.79296875 5.94140625 C0.94371025 9.69057181 0.2500695 12.63631309 -3 15 C-2.44854729 9.76119922 -1.57077907 5.02649303 0 0 Z " fill="#736881" transform="translate(84,97)"/>
<path d="M0 0 C4.875 4.625 4.875 4.625 6 8 C2.62496331 6.8141763 0.35277269 5.72426311 -2 3 C-1 1 -1 1 0 0 Z " fill="#645875" transform="translate(402,78)"/>
<path d="M0 0 C3.5875213 1.33250791 6.8364623 2.830717 10 5 C10 5.66 10 6.32 10 7 C10.66 7.33 11.32 7.66 12 8 C11.01 8.495 11.01 8.495 10 9 C8.51444617 8.07265428 7.03672494 7.13275187 5.5625 6.1875 C4.73878906 5.66542969 3.91507812 5.14335937 3.06640625 4.60546875 C1 3 1 3 0 0 Z " fill="#685E77" transform="translate(325,20)"/>
<path d="M0 0 C2.97 0 5.94 0 9 0 C6.63707344 2.52588702 5.33537489 3.88820837 2 5 C1.34 3.35 0.68 1.7 0 0 Z " fill="#514166" transform="translate(273,476)"/>
<path d="M0 0 C0.66 0.66 1.32 1.32 2 2 C1.625 4.125 1.625 4.125 1 6 C-0.875 5.6875 -0.875 5.6875 -3 5 C-3.66 4.01 -4.32 3.02 -5 2 C-3.35 1.34 -1.7 0.68 0 0 Z " fill="#3B2856" transform="translate(166,435)"/>
<path d="M0 0 C-0.25 1.875 -0.25 1.875 -1 4 C-3.0625 5.25 -3.0625 5.25 -5 6 C-5 5.34 -5 4.68 -5 4 C-5.66 3.67 -6.32 3.34 -7 3 C-3.375 0 -3.375 0 0 0 Z " fill="#605171" transform="translate(19,232)"/>
<path d="M0 0 C-4.455 2.97 -4.455 2.97 -9 6 C-9.33 5.34 -9.66 4.68 -10 4 C-4.7704918 -1.59016393 -4.7704918 -1.59016393 0 0 Z " fill="#597BC7" transform="translate(282,453)"/>
<path d="M0 0 C1.32 0.66 2.64 1.32 4 2 C3.01 3.485 3.01 3.485 2 5 C2.33 5.66 2.66 6.32 3 7 C1 6 -1 5 -3 4 C-3 3.34 -3 2.68 -3 2 C-2.01 1.34 -1.02 0.68 0 0 Z " fill="#615273" transform="translate(160,433)"/>
<path d="M0 0 C0.99 0 1.98 0 3 0 C3 0.66 3 1.32 3 2 C3.66 2.33 4.32 2.66 5 3 C3.02 4.32 1.04 5.64 -1 7 C-1.04254356 5.00045254 -1.04080783 2.99958364 -1 1 C-0.67 0.67 -0.34 0.34 0 0 Z " fill="#5F4F70" transform="translate(365,412)"/>
<path d="M0 0 C0.66 1.32 1.32 2.64 2 4 C1 5.5625 1 5.5625 -1 7 C-3.76614782 6.96726452 -6.26030547 6.49404328 -9 6 C-9 5.67 -9 5.34 -9 5 C-7.88625 4.731875 -6.7725 4.46375 -5.625 4.1875 C-1.78159049 3.34190981 -1.78159049 3.34190981 0 0 Z " fill="#675A7B" transform="translate(49,384)"/>
<path d="M0 0 C0.33 1.32 0.66 2.64 1 4 C1.66 4 2.32 4 3 4 C3.33 4.99 3.66 5.98 4 7 C3.01 7.33 2.02 7.66 1 8 C0.67 8.99 0.34 9.98 0 11 C-0.66 10.67 -1.32 10.34 -2 10 C-2 8.68 -2 7.36 -2 6 C-1.34 6 -0.68 6 0 6 C0 4.02 0 2.04 0 0 Z " fill="#4071BF" transform="translate(329,284)"/>
<path d="M0 0 C6.52307692 0.61538462 6.52307692 0.61538462 8.9375 2.5625 C9.288125 3.036875 9.63875 3.51125 10 4 C9.67 4.99 9.34 5.98 9 7 C7.4972763 6.02501855 5.99788037 5.04490611 4.5 4.0625 C3.6646875 3.51722656 2.829375 2.97195312 1.96875 2.41015625 C1.3190625 1.94480469 0.669375 1.47945312 0 1 C0 0.67 0 0.34 0 0 Z " fill="#5C506D" transform="translate(77,226)"/>
<path d="M0 0 C0 0.99 0 1.98 0 3 C0.66 3.33 1.32 3.66 2 4 C2 4.66 2 5.32 2 6 C-1.21232125 7.07077375 -3.63937807 7 -7 7 C-4.69 4.69 -2.38 2.38 0 0 Z " fill="#6F6287" transform="translate(75,125)"/>
<path d="M0 0 C3 1 3 1 4.1875 3.0625 C4.455625 3.701875 4.72375 4.34125 5 5 C3.35 5.66 1.7 6.32 0 7 C-1.125 2.25 -1.125 2.25 0 0 Z M4 2 C6 3 6 3 6 3 Z " fill="#513E6A" transform="translate(144,48)"/>
<path d="M0 0 C4 0 4 0 5.484375 1.3125 C6.65625 2.875 7.828125 4.4375 9 6 C6 6 6 6 4 5 C4 4.34 4 3.68 4 3 C2.68 2.67 1.36 2.34 0 2 C0 1.34 0 0.68 0 0 Z " fill="#675B76" transform="translate(201,465)"/>
<path d="M0 0 C1.875 0.25 1.875 0.25 4 1 C5.25 3.0625 5.25 3.0625 6 5 C5.01 5 4.02 5 3 5 C2.67 5.66 2.34 6.32 2 7 C0.5393715 4.35261084 0 3.10551666 0 0 Z " fill="#48385F" transform="translate(467,360)"/>
<path d="M0 0 C2.10353495 -0.0810206 4.20795952 -0.13919907 6.3125 -0.1875 C7.48425781 -0.22230469 8.65601563 -0.25710937 9.86328125 -0.29296875 C13 0 13 0 16 3 C10.72 2.34 5.44 1.68 0 1 C0 0.67 0 0.34 0 0 Z " fill="#402360" transform="translate(205,33)"/>
<path d="M0 0 C4.875 4.75 4.875 4.75 6 7 C3.21788056 6.62403791 1.4120716 6.32681541 -0.8125 4.5625 C-2 3 -2 3 -2 1 C-1.34 0.67 -0.68 0.34 0 0 Z " fill="#3D2958" transform="translate(208,465)"/>
<path d="M0 0 C3.36720387 1.39332574 4.9859524 2.9789286 7 6 C4.36 6 1.72 6 -1 6 C-0.67 4.02 -0.34 2.04 0 0 Z " fill="#2D1C4A" transform="translate(452,369)"/>
<path d="M0 0 C4.12751449 0.60698743 7.3321148 2.03810791 11 4 C9.375 4.6875 9.375 4.6875 7 5 C1.33333333 2.66666667 1.33333333 2.66666667 0 0 Z " fill="#5C5269" transform="translate(13,275)"/>
<path d="M0 0 C2.5 2.3125 2.5 2.3125 5 5 C5 5.99 5 6.98 5 8 C3.35 7.67 1.7 7.34 0 7 C-0.93423645 3.98968256 -1.04449911 3.13349732 0 0 Z " fill="#57476F" transform="translate(19,255)"/>
<path d="M0 0 C3.94120709 0.56302958 6.7508723 1.6791945 10 4 C10 4.66 10 5.32 10 6 C6.00452264 5.38531118 3.22493358 3.34540624 0 1 C0 0.67 0 0.34 0 0 Z " fill="#70657C" transform="translate(35,231)"/>
<path d="M0 0 C0.66 0 1.32 0 2 0 C2.185625 0.5775 2.37125 1.155 2.5625 1.75 C4.70551122 5.10427843 7.48822563 6.17907996 11 8 C10.01 8.33 9.02 8.66 8 9 C5.95703125 7.890625 5.95703125 7.890625 3.8125 6.25 C3.09707031 5.71890625 2.38164062 5.1878125 1.64453125 4.640625 C1.10183594 4.09921875 0.55914062 3.5578125 0 3 C0 2.01 0 1.02 0 0 Z " fill="#3F215E" transform="translate(305,97)"/>
<path d="M0 0 C-5.625 3.875 -5.625 3.875 -9 5 C-9 4.01 -9 3.02 -9 2 C-8.34 2 -7.68 2 -7 2 C-7 1.34 -7 0.68 -7 0 C-3.86650268 -1.04449911 -3.01031744 -0.93423645 0 0 Z " fill="#665A77" transform="translate(333,443)"/>
<path d="M0 0 C0.99 0 1.98 0 3 0 C3 1.98 3 3.96 3 6 C-1.875 4.25 -1.875 4.25 -3 2 C-2.34 2 -1.68 2 -1 2 C-0.67 1.34 -0.34 0.68 0 0 Z " fill="#5D4A70" transform="translate(27,398)"/>
<path d="M0 0 C1.17539996 0.92652701 2.34010577 1.86663387 3.5 2.8125 C4.1496875 3.33457031 4.799375 3.85664063 5.46875 4.39453125 C7 6 7 6 7 9 C5 7.625 5 7.625 3 6 C3 5.34 3 4.68 3 4 C2.01 3.67 1.02 3.34 0 3 C0 2.01 0 1.02 0 0 Z " fill="#6F8EC8" transform="translate(186,343)"/>
<path d="M0 0 C0.99 0.33 1.98 0.66 3 1 C2.2884375 2.0828125 2.2884375 2.0828125 1.5625 3.1875 C0.05847097 5.89475226 -0.56599182 7.96194275 -1 11 C-2.125 9.375 -2.125 9.375 -3 7 C-1.63157895 1.63157895 -1.63157895 1.63157895 0 0 Z " fill="#7390CA" transform="translate(182,324)"/>
<path d="M0 0 C0 0.66 0 1.32 0 2 C-3 4 -3 4 -7 4 C-7 3.01 -7 2.02 -7 1 C-4.53721199 -0.231394 -2.7204945 -0.07159196 0 0 Z " fill="#473A62" transform="translate(417,228)"/>
<path d="M0 0 C1.65 0 3.3 0 5 0 C3.92598892 2.91517292 3.22189824 4.77810176 1 7 C0.67 4.69 0.34 2.38 0 0 Z " fill="#665B7B" transform="translate(435,202)"/>
<path d="M0 0 C2.29633824 3.44450737 2.54016485 5.93812283 3 10 C2.01 10.495 2.01 10.495 1 11 C0.63743142 9.5437328 0.28520207 8.08488815 -0.0625 6.625 C-0.35833984 5.40683594 -0.35833984 5.40683594 -0.66015625 4.1640625 C-1 2 -1 2 0 0 Z " fill="#645874" transform="translate(441,151)"/>
<path d="M0 0 C0.66 0.33 1.32 0.66 2 1 C0.9375 3 0.9375 3 -1 5 C-4.6875 5.25 -4.6875 5.25 -8 5 C-5.45378681 2.99940392 -3.01962385 1.20784954 0 0 Z " fill="#675C7A" transform="translate(126,56)"/>
<path d="M0 0 C0.66 0.33 1.32 0.66 2 1 C1.360625 1.226875 0.72125 1.45375 0.0625 1.6875 C-2.27193661 2.85250896 -2.27193661 2.85250896 -2.75 5.625 C-2.8325 6.40875 -2.915 7.1925 -3 8 C-3.99 7.34 -4.98 6.68 -6 6 C-6 5.34 -6 4.68 -6 4 C-4.03852126 2.61061923 -2.03833424 1.2739589 0 0 Z " fill="#38275F" transform="translate(331,419)"/>
<path d="M0 0 C0.66 0 1.32 0 2 0 C2 3 2 3 0.8125 4.6875 C-1.55741722 6.40364695 -3.14025666 6.23187108 -6 6 C-4 4 -2 2 0 0 Z " fill="#6086C6" transform="translate(247,382)"/>
<path d="M0 0 C-1.39332574 3.36720387 -2.9789286 4.9859524 -6 7 C-6.66 6.67 -7.32 6.34 -8 6 C-8 5.34 -8 4.68 -8 4 C-6.68 3.67 -5.36 3.34 -4 3 C-4 2.34 -4 1.68 -4 1 C-2 0 -2 0 0 0 Z " fill="#6B617D" transform="translate(32,359)"/>
<path d="M0 0 C2.31 1.98 4.62 3.96 7 6 C6.01 6.495 6.01 6.495 5 7 C2.4375 5.75 2.4375 5.75 0 4 C-0.33 3.01 -0.66 2.02 -1 1 C-0.67 0.67 -0.34 0.34 0 0 Z " fill="#3F225E" transform="translate(83,203)"/>
<path d="M0 0 C1.2077558 3.62326739 0.54311128 4.64146369 -1 8 C-1.33 7.34 -1.66 6.68 -2 6 C-2.99 6.33 -3.98 6.66 -5 7 C-5 6.01 -5 5.02 -5 4 C-3.35 3.34 -1.7 2.68 0 2 C0 1.34 0 0.68 0 0 Z " fill="#5C4E77" transform="translate(442,193)"/>
<path d="M0 0 C4 0 4 0 7 2 C6.67 3.65 6.34 5.3 6 7 C1.125 2.25 1.125 2.25 0 0 Z " fill="#3D2460" transform="translate(320,161)"/>
<path d="M0 0 C2.91227269 3.28804981 4.49701212 5.59885603 5 10 C4.34 10 3.68 10 3 10 C0.96564469 6.27034861 0 4.33094958 0 0 Z " fill="#625871" transform="translate(435,139)"/>
<path d="M0 0 C1.99097846 2.98646769 2.94124926 5.59687262 4 9 C2.68 8.67 1.36 8.34 0 8 C-1.125 2.25 -1.125 2.25 0 0 Z " fill="#645975" transform="translate(411,91)"/>
<path d="M0 0 C4.455 0.99 4.455 0.99 9 2 C8.34 2.66 7.68 3.32 7 4 C3.875 3.625 3.875 3.625 1 3 C0.67 2.01 0.34 1.02 0 0 Z " fill="#433855" transform="translate(243,493)"/>
<path d="M0 0 C0.66 0.33 1.32 0.66 2 1 C-0.97 3.475 -0.97 3.475 -4 6 C-4.33 4.68 -4.66 3.36 -5 2 C-2.625 0.9375 -2.625 0.9375 0 0 Z " fill="#5685D0" transform="translate(359,394)"/>
<path d="M0 0 C3 1 3 1 4 3 C4.04022391 5.3329866 4.04320247 7.66706666 4 10 C2.88941214 7.92690266 2.02601506 6.11381589 1.5 3.8125 C1.335 3.214375 1.17 2.61625 1 2 C0.34 1.67 -0.32 1.34 -1 1 C-0.67 0.67 -0.34 0.34 0 0 Z " fill="#5A4D6E" transform="translate(47,374)"/>
<path d="M0 0 C0 1.32 0 2.64 0 4 C-1.98 4 -3.96 4 -6 4 C-6.33 4.99 -6.66 5.98 -7 7 C-7.33 6.34 -7.66 5.68 -8 5 C-5.81209839 1.71814759 -4.05191042 0 0 0 Z " fill="#3A2853" transform="translate(46,319)"/>
<path d="M0 0 C1.98 0.495 1.98 0.495 4 1 C4.33 2.32 4.66 3.64 5 5 C2.03 4.505 2.03 4.505 -1 4 C-0.67 2.68 -0.34 1.36 0 0 Z " fill="#3E2A58" transform="translate(452,319)"/>
<path d="M0 0 C6.75 0.75 6.75 0.75 9 3 C5.625 3.625 5.625 3.625 2 4 C1.34 3.34 0.68 2.68 0 2 C0 1.34 0 0.68 0 0 Z " fill="#6E627F" transform="translate(359,53)"/>
<path d="M0 0 C0 1.32 0 2.64 0 4 C-3.465 5.485 -3.465 5.485 -7 7 C-7 5 -7 5 -4.625 2.375 C-2 0 -2 0 0 0 Z " fill="#6F8FC5" transform="translate(277,350)"/>
<path d="M0 0 C0.33 0 0.66 0 1 0 C1 1.65 1 3.3 1 5 C-0.65 5.66 -2.3 6.32 -4 7 C-1.125 1.125 -1.125 1.125 0 0 Z " fill="#5C5272" transform="translate(152,36)"/>
<path d="M0 0 C5.75 1.75 5.75 1.75 8 4 C8 4.66 8 5.32 8 6 C5.33333333 4.66666667 2.66666667 3.33333333 0 2 C0 1.34 0 0.68 0 0 Z " fill="#916AB0" transform="translate(310,37)"/>
<path d="M0 0 C0.33 0.66 0.66 1.32 1 2 C0.34 2 -0.32 2 -1 2 C-1.66 3.32 -2.32 4.64 -3 6 C-4.32 5.67 -5.64 5.34 -7 5 C-4.69 3.35 -2.38 1.7 0 0 Z " fill="#6A5E7A" transform="translate(261,21)"/>
<path d="M0 0 C2.4375 0.375 2.4375 0.375 5 1 C5.33 1.66 5.66 2.32 6 3 C5.34 3.66 4.68 4.32 4 5 C3.01 4.67 2.02 4.34 1 4 C0.3125 1.9375 0.3125 1.9375 0 0 Z " fill="#3F3258" transform="translate(229,18)"/>
<path d="M0 0 C1.98 0.66 3.96 1.32 6 2 C5.67 2.99 5.34 3.98 5 5 C2.525 4.01 2.525 4.01 0 3 C0 2.01 0 1.02 0 0 Z " fill="#5F4C6F" transform="translate(211,471)"/>
<path d="M0 0 C2.31 0 4.62 0 7 0 C5.71034824 1.37562854 4.37310707 2.70766393 3 4 C2.34 4 1.68 4 1 4 C0.67 2.68 0.34 1.36 0 0 Z " fill="#5E506E" transform="translate(299,460)"/>
<path d="M0 0 C0.99 0.66 1.98 1.32 3 2 C0.625 3.5625 0.625 3.5625 -2 5 C-2.66 4.67 -3.32 4.34 -4 4 C-4 3.34 -4 2.68 -4 2 C-2.68 1.34 -1.36 0.68 0 0 Z " fill="#547ECB" transform="translate(292,442)"/>
<path d="M0 0 C0.99 0.33 1.98 0.66 3 1 C2.34 2.32 1.68 3.64 1 5 C0.01 4.67 -0.98 4.34 -2 4 C-2 3.01 -2 2.02 -2 1 C-1.34 0.67 -0.68 0.34 0 0 Z " fill="#443558" transform="translate(374,405)"/>
<path d="M0 0 C4.41889613 1.35021826 6.34345343 3.26115668 9 7 C5.18315774 5.44499019 2.80804268 2.96404505 0 0 Z " fill="#5E83CF" transform="translate(148,404)"/>
<path d="M0 0 C1.32 1.65 2.64 3.3 4 5 C3.67 5.66 3.34 6.32 3 7 C2.01 7.33 1.02 7.66 0 8 C0 5.36 0 2.72 0 0 Z " fill="#625778" transform="translate(476,367)"/>
<path d="M0 0 C1.2077558 3.62326739 0.54311128 4.64146369 -1 8 C-1.99 7.67 -2.98 7.34 -4 7 C-2.92598892 4.08482708 -2.22189824 2.22189824 0 0 Z " fill="#706581" transform="translate(437,363)"/>
<path d="M0 0 C0.66 0.33 1.32 0.66 2 1 C1.67 2.32 1.34 3.64 1 5 C-0.32 4.67 -1.64 4.34 -3 4 C-2.67 3.01 -2.34 2.02 -2 1 C-1.34 0.67 -0.68 0.34 0 0 Z M-5 4 C-4.34 4 -3.68 4 -3 4 C-3.33 4.66 -3.66 5.32 -4 6 C-4.33 5.34 -4.66 4.68 -5 4 Z " fill="#362251" transform="translate(462,329)"/>
<path d="M0 0 C2.62187494 1.04874998 3.79371361 1.64931313 5.25 4.125 C5.4975 4.74375 5.745 5.3625 6 6 C4.68 5.67 3.36 5.34 2 5 C2 4.34 2 3.68 2 3 C1.34 3 0.68 3 0 3 C0 2.01 0 1.02 0 0 Z " fill="#6182B8" transform="translate(207,328)"/>
<path d="M0 0 C0.66 0.33 1.32 0.66 2 1 C1.8125 2.875 1.8125 2.875 1 5 C-1.5625 6.25 -1.5625 6.25 -4 7 C-2.79618552 4.50638429 -1.54571278 2.31856917 0 0 Z " fill="#4872C6" transform="translate(302,278)"/>
<path d="M0 0 C0.99 0 1.98 0 3 0 C2.67 1.65 2.34 3.3 2 5 C0.68 4.34 -0.64 3.68 -2 3 C-1.34 2.01 -0.68 1.02 0 0 Z " fill="#402E57" transform="translate(11,236)"/>
<path d="M0 0 C0.66 0.33 1.32 0.66 2 1 C2.33 1.99 2.66 2.98 3 4 C-0.465 5.485 -0.465 5.485 -4 7 C-3.67 6.01 -3.34 5.02 -3 4 C-2.34 4 -1.68 4 -1 4 C-0.67 2.68 -0.34 1.36 0 0 Z " fill="#786B89" transform="translate(97,76)"/>
<path d="M0 0 C0.66 0.33 1.32 0.66 2 1 C-2.39453125 5.00390625 -2.39453125 5.00390625 -4 6 C-4.99 5.67 -5.98 5.34 -7 5 C-5.47058649 1.94117299 -3.05780454 1.31048766 0 0 Z " fill="#3F2061" transform="translate(178,40)"/>
<path d="M0 0 C2.475 0.99 2.475 0.99 5 2 C5 2.99 5 3.98 5 5 C4.01 5 3.02 5 2 5 C1.34 3.35 0.68 1.7 0 0 Z " fill="#564A67" transform="translate(238,22)"/>
<path d="" fill="#FFFFFF" transform="translate(0,0)"/>
<path d="" fill="#FFFFFF" transform="translate(0,0)"/>
<path d="" fill="#FFFFFF" transform="translate(0,0)"/>
<path d="" fill="#FFFFFF" transform="translate(0,0)"/>
<path d="" fill="#FFFFFF" transform="translate(0,0)"/>
<path d="" fill="#FFFFFF" transform="translate(0,0)"/>
<path d="" fill="#FFFFFF" transform="translate(0,0)"/>
<path d="" fill="#FFFFFF" transform="translate(0,0)"/>
<path d="" fill="#FFFFFF" transform="translate(0,0)"/>
<path d="" fill="#FFFFFF" transform="translate(0,0)"/>
<path d="" fill="#FFFFFF" transform="translate(0,0)"/>
<path d="" fill="#FFFFFF" transform="translate(0,0)"/>
<path d="" fill="#FFFFFF" transform="translate(0,0)"/>
<path d="" fill="#FFFFFF" transform="translate(0,0)"/>
<path d="" fill="#FFFFFF" transform="translate(0,0)"/>
<path d="" fill="#FFFFFF" transform="translate(0,0)"/>
<path d="" fill="#FFFFFF" transform="translate(0,0)"/>
<path d="" fill="#FFFFFF" transform="translate(0,0)"/>
<path d="" fill="#FFFFFF" transform="translate(0,0)"/>
<path d="" fill="#FFFFFF" transform="translate(0,0)"/>
<path d="" fill="#FFFFFF" transform="translate(0,0)"/>
<path d="" fill="#FFFFFF" transform="translate(0,0)"/>
<path d="" fill="#FFFFFF" transform="translate(0,0)"/>
<path d="" fill="#FFFFFF" transform="translate(0,0)"/>
<path d="" fill="#FFFFFF" transform="translate(0,0)"/>
<path d="" fill="#FFFFFF" transform="translate(0,0)"/>
<path d="" fill="#FFFFFF" transform="translate(0,0)"/>
<path d="" fill="#FFFFFF" transform="translate(0,0)"/>
<path d="" fill="#FFFFFF" transform="translate(0,0)"/>
<path d="" fill="#FFFFFF" transform="translate(0,0)"/>
<path d="" fill="#FFFFFF" transform="translate(0,0)"/>
<path d="" fill="#FFFFFF" transform="translate(0,0)"/>
<path d="" fill="#FFFFFF" transform="translate(0,0)"/>
</svg>
